<svg width="520" height="204" xmlns="http://www.w3.org/2000/svg" xmlns:xlink="http://www.w3.org/1999/xlink" xml:space="preserve" overflow="hidden"><defs><clipPath id="clip0"><rect x="1587" y="148" width="511" height="165"/></clipPath></defs><g transform="translate(-1585 -129)"><path d="M33.5369 122.59 33.5369 101.39 7.80211 101.39 7.80211 122.59 3.67103 122.59 3.67103 78.8473 7.80211 78.8473 7.80211 97.8409 33.5369 97.8409 33.5369 78.8473 37.6586 78.8473 37.6586 122.59 33.5369 122.59Z" fill="#FFFFFF" transform="matrix(1 0 0 1.00156 1585 129.019)"/><g><path d="M75.8335 106.779C75.8335 115.849 70.6133 123.51 61.0274 123.51 51.4414 123.51 46.2212 115.849 46.2212 106.779 46.2212 97.7095 51.4414 90.0576 61.0274 90.0576 70.6133 90.0576 75.8335 97.7095 75.8335 106.779M50.033 106.779C50.033 113.52 53.6759 120.261 61.018 120.261 68.36 120.261 72.0029 113.52 72.0029 106.779 72.0029 100.038 68.36 93.2967 61.018 93.2967 53.6759 93.2967 50.033 100.038 50.033 106.779" fill="#FFFFFF" transform="matrix(1 0 0 1.00156 1585 129.019)"/><path d="M105.756 100.902C104.723 96.1885 101.869 93.3061 96.8927 93.3061 89.5506 93.3061 85.9077 100.047 85.9077 106.788 85.9077 113.53 89.5506 120.271 96.8927 120.271 101.625 120.271 105.512 116.534 106 111.267L109.821 111.267C108.788 118.863 103.869 123.519 96.8927 123.519 87.3067 123.519 82.0865 115.858 82.0865 106.788 82.0865 97.7189 87.3067 90.067 96.8927 90.067 103.568 90.067 108.732 93.6817 109.577 100.911L105.756 100.911Z" fill="#FFFFFF" transform="matrix(1 0 0 1.00156 1585 129.019)"/><path d="M117.219 78.8473 121.041 78.8473 121.041 96.4326 121.163 96.4326C122.552 92.6395 126.749 90.067 131.181 90.067 139.978 90.067 142.654 94.7238 142.654 102.254L142.654 122.599 138.833 122.599 138.833 102.864C138.833 97.409 137.077 93.3061 130.88 93.3061 124.684 93.3061 121.172 97.963 121.05 104.15L121.05 122.599 117.229 122.599 117.229 78.8473Z" fill="#FFFFFF" transform="matrix(1 0 0 1.00156 1585 129.019)"/><path d="M170.755 100.226C170.576 95.4468 166.933 93.3061 162.558 93.3061 159.159 93.3061 155.15 94.6581 155.15 98.761 155.15 102.197 159.037 103.418 161.647 104.094L166.746 105.258C171.111 105.934 175.665 108.507 175.665 114.018 175.665 120.881 168.924 123.51 163.103 123.51 155.817 123.51 150.841 120.083 150.231 112.356L154.052 112.356C154.352 117.567 158.183 120.252 163.281 120.252 166.858 120.252 171.834 118.665 171.834 114.253 171.834 110.572 168.435 109.352 164.98 108.488L160.061 107.389C155.085 106.047 151.32 104.329 151.32 98.93 151.32 92.4987 157.573 90.0482 163.093 90.0482 169.346 90.0482 174.322 93.3531 174.566 100.216L170.745 100.216Z" fill="#FFFFFF" transform="matrix(1 0 0 1.00156 1585 129.019)"/><path d="M205.409 100.902C204.376 96.1885 201.522 93.3061 196.546 93.3061 189.204 93.3061 185.561 100.047 185.561 106.788 185.561 113.53 189.204 120.271 196.546 120.271 201.278 120.271 205.165 116.534 205.653 111.267L209.474 111.267C208.441 118.863 203.531 123.519 196.546 123.519 186.96 123.519 181.739 115.858 181.739 106.788 181.739 97.7189 186.96 90.067 196.546 90.067 203.23 90.067 208.385 93.6817 209.23 100.911L205.409 100.911Z" fill="#FFFFFF" transform="matrix(1 0 0 1.00156 1585 129.019)"/><path d="M216.882 78.8473 220.703 78.8473 220.703 96.4326 220.825 96.4326C222.224 92.6395 226.411 90.067 230.843 90.067 239.64 90.067 242.316 94.7238 242.316 102.254L242.316 122.599 238.495 122.599 238.495 102.864C238.495 97.409 236.739 93.3061 230.543 93.3061 224.346 93.3061 220.835 97.963 220.712 104.15L220.712 122.599 216.891 122.599 216.891 78.8473Z" fill="#FFFFFF" transform="matrix(1 0 0 1.00156 1585 129.019)"/><path d="M277.027 122.59 273.506 122.59 273.506 116.891 273.384 116.891C271.384 121.116 267.253 123.501 262.577 123.501 254.691 123.501 251.592 118.844 251.592 111.492L251.592 90.9589 255.414 90.9589 255.414 111.549C255.592 117.248 257.714 120.243 263.788 120.243 270.342 120.243 273.196 113.999 273.196 107.558L273.196 90.9495 277.017 90.9495 277.017 122.571Z" fill="#FFFFFF" transform="matrix(1 0 0 1.00156 1585 129.019)"/><path d="M286.434 78.8473 290.255 78.8473 290.255 122.599 286.434 122.599Z" fill="#FFFFFF" transform="matrix(1 0 0 1.00156 1585 129.019)"/><path d="M301.973 107.831C302.029 113.473 304.949 120.271 312.291 120.271 317.877 120.271 320.91 116.966 322.121 112.187L325.942 112.187C324.309 119.351 320.178 123.519 312.282 123.519 302.33 123.519 298.142 115.792 298.142 106.788 298.142 98.4512 302.33 90.0576 312.282 90.0576 322.234 90.0576 326.365 98.9394 326.064 107.831L301.963 107.831ZM322.243 104.582C322.065 98.761 318.478 93.3061 312.291 93.3061 306.104 93.3061 302.583 98.8174 301.973 104.582L322.243 104.582Z" fill="#FFFFFF" transform="matrix(1 0 0 1.00156 1585 129.019)"/><path d="M3.63347 138.232 27.0023 138.232C34.7762 138.232 39.6866 143.687 39.6866 150.306 39.6866 155.451 37.621 159.31 32.8233 161.272L32.8233 161.394C37.499 162.624 38.8322 167.215 39.1326 171.618 39.311 174.379 39.2547 179.524 40.954 181.974L31.4244 181.974C30.2696 179.214 30.3916 174.989 29.9128 171.496 29.2462 166.905 27.4811 164.887 22.6928 164.887L13.1631 164.887 13.1631 181.984 3.63347 181.984 3.63347 138.232ZM13.1631 158.023 23.6035 158.023C27.8566 158.023 30.1569 156.183 30.1569 151.77 30.1569 147.358 27.8472 145.705 23.6035 145.705L13.1631 145.705 13.1631 158.014Z" fill="#FFFFFF" transform="matrix(1 0 0 1.00156 1585 129.019)"/><path d="M62.3136 149.451C72.2094 149.451 78.5844 156.07 78.5844 166.182 78.5844 176.294 72.2094 182.847 62.3136 182.847 52.4178 182.847 46.1085 176.238 46.1085 166.182 46.1085 156.127 52.4835 149.451 62.3136 149.451M62.3136 176.294C68.2004 176.294 69.9655 171.205 69.9655 166.182 69.9655 161.159 68.2004 156.014 62.3136 156.014 56.4268 156.014 54.7275 161.103 54.7275 166.182 54.7275 171.262 56.4832 176.294 62.3136 176.294" fill="#FFFFFF" transform="matrix(1 0 0 1.00156 1585 129.019)"/><path d="M91.372 171.693C91.4378 175.496 94.5924 177.017 97.9911 177.017 100.479 177.017 103.643 176.04 103.643 172.98 103.643 170.341 100.057 169.421 93.8695 168.069 88.8934 166.971 83.9173 165.196 83.9173 159.619 83.9173 151.536 90.8369 149.451 97.578 149.451 104.319 149.451 110.751 151.78 111.417 159.563L103.221 159.563C102.977 156.192 100.432 155.272 97.3339 155.272 95.3904 155.272 92.5362 155.639 92.5362 158.211 92.5362 161.338 97.3903 161.769 102.31 162.934 107.342 164.098 112.262 165.938 112.262 171.815 112.262 180.143 105.098 182.838 97.9348 182.838 90.7711 182.838 83.5511 180.087 83.185 171.684L91.3814 171.684Z" fill="#FFFFFF" transform="matrix(1 0 0 1.00156 1585 129.019)"/><path d="M124.928 168.257C125.172 173.778 127.838 176.285 132.636 176.285 136.1 176.285 138.889 174.135 139.433 172.182L147.02 172.182C144.597 179.655 139.433 182.838 132.335 182.838 122.44 182.838 116.309 175.975 116.309 166.173 116.309 156.371 122.806 149.451 132.335 149.451 143.02 149.451 148.174 158.521 147.574 168.257L124.937 168.257ZM138.945 162.746C138.157 158.333 136.279 156.005 132.082 156.005 126.618 156.005 125.04 160.295 124.918 162.746L138.936 162.746Z" fill="#FFFFFF" transform="matrix(1 0 0 1.00156 1585 129.019)"/><path d="M153.197 150.306 161.394 150.306 161.394 154.718 161.572 154.718C163.76 151.169 167.525 149.451 171.158 149.451 180.322 149.451 182.631 154.662 182.631 162.502L182.631 181.984 174.012 181.984 174.012 164.088C174.012 158.878 172.501 156.305 168.482 156.305 163.807 156.305 161.807 158.943 161.807 165.375L161.807 181.984 153.188 181.984 153.188 150.306Z" fill="#FFFFFF" transform="matrix(1 0 0 1.00156 1585 129.019)"/><path d="M189.72 138.232 198.339 138.232 198.339 154.709 198.517 154.709C200.705 151.16 204.46 149.442 207.69 149.442 216.854 149.442 219.163 154.653 219.163 162.492L219.163 181.974 210.544 181.974 210.544 164.079C210.544 158.868 209.033 156.296 205.024 156.296 200.348 156.296 198.348 158.934 198.348 165.365L198.348 181.974 189.729 181.974 189.729 138.222Z" fill="#FFFFFF" transform="matrix(1 0 0 1.00156 1585 129.019)"/><path d="M233.35 168.257C233.585 173.778 236.26 176.285 241.058 176.285 244.523 176.285 247.311 174.135 247.856 172.182L255.442 172.182C253.01 179.655 247.856 182.838 240.748 182.838 230.862 182.838 224.721 175.975 224.721 166.173 224.721 156.371 231.219 149.451 240.748 149.451 251.433 149.451 256.587 158.521 255.986 168.257L233.35 168.257ZM247.367 162.746C246.579 158.333 244.692 156.005 240.504 156.005 235.04 156.005 233.462 160.295 233.34 162.746L247.358 162.746Z" fill="#FFFFFF" transform="matrix(1 0 0 1.00156 1585 129.019)"/><path d="M270.483 145.405 261.864 145.405 261.864 138.232 270.483 138.232 270.483 145.405ZM261.864 150.306 270.483 150.306 270.483 181.984 261.864 181.984 261.864 150.306Z" fill="#FFFFFF" transform="matrix(1 0 0 1.00156 1585 129.019)"/></g><g clip-path="url(#clip0)"><path d="M278.069 150.306 286.199 150.306 286.199 154.596 286.322 154.596C288.575 151.348 291.852 149.451 295.917 149.451 299.982 149.451 303.381 150.925 305.08 154.718 306.902 151.958 310.179 149.451 314.544 149.451 321.22 149.451 326.017 152.578 326.017 160.784L326.017 181.984 317.399 181.984 317.399 164.032C317.399 159.807 317.032 156.305 312.122 156.305 307.212 156.305 306.357 160.352 306.357 164.333L306.357 181.974 297.738 181.974 297.738 164.211C297.738 160.53 297.982 156.305 292.518 156.305 290.819 156.305 286.688 157.404 286.688 163.6L286.688 181.974 278.069 181.974 278.069 150.296Z" fill="#FFFFFF" transform="matrix(1 0 0 1.00156 1585 129.019)"/><path d="M0 19.2471 34.3068 19.2471 34.3068 22.7961 19.2659 22.7961 19.2659 62.9896 15.1442 62.9896 15.1442 22.7961 0 22.7961 0 19.2471Z" fill="#FFFFFF" transform="matrix(1 0 0 1.00156 1585 129.019)"/></g><g><path d="M37.2455 48.2304C37.3018 53.8637 40.2217 60.6706 47.5638 60.6706 53.1501 60.6706 56.1827 57.3563 57.3939 52.5868L61.2151 52.5868C59.5815 59.7505 55.4504 63.9191 47.5544 63.9191 37.6022 63.9191 33.4148 56.2015 33.4148 47.1882 33.4148 38.851 37.6022 30.4667 47.5544 30.4667 57.5065 30.4667 61.6376 39.3486 61.3372 48.2304L37.2455 48.2304ZM57.5159 44.9819C57.3375 39.1608 53.751 33.7059 47.5638 33.7059 41.3765 33.7059 37.8557 39.2171 37.2455 44.9819L57.5159 44.9819Z" fill="#FFFFFF" transform="matrix(1 0 0 1.00156 1585 129.019)"/></g><g><path d="M92.5926 41.3014C91.5598 36.5882 88.7056 33.7059 83.7295 33.7059 76.3875 33.7059 72.7446 40.4471 72.7446 47.1882 72.7446 53.9294 76.3875 60.6706 83.7295 60.6706 88.4615 60.6706 92.3485 56.9338 92.8367 51.6667L96.6579 51.6667C95.6252 59.2623 90.7054 63.9191 83.7295 63.9191 74.1435 63.9191 68.9234 56.2578 68.9234 47.1882 68.9234 38.1186 74.1435 30.4667 83.7295 30.4667 90.405 30.4667 95.5688 34.0814 96.4138 41.3108L92.5926 41.3108Z" fill="#FFFFFF" transform="matrix(1 0 0 1.00156 1585 129.019)"/><path d="M105.934 19.2471 109.755 19.2471 109.755 36.8324 109.877 36.8324C111.276 33.0299 115.464 30.4667 119.895 30.4667 128.693 30.4667 131.368 35.1236 131.368 42.6534L131.368 62.999 127.547 62.999 127.547 43.2637C127.547 37.8088 125.791 33.7059 119.595 33.7059 113.398 33.7059 109.887 38.3627 109.765 44.55L109.765 62.999 105.943 62.999 105.943 19.2471Z" fill="#FFFFFF" transform="matrix(1 0 0 1.00156 1585 129.019)"/><path d="M142.532 31.3774 146.353 31.3774 146.353 36.8324 146.475 36.8324C147.874 33.0299 152.061 30.4667 156.493 30.4667 165.29 30.4667 167.966 35.1236 167.966 42.6534L167.966 62.999 164.145 62.999 164.145 43.2637C164.145 37.8088 162.389 33.7059 156.192 33.7059 149.996 33.7059 146.484 38.3627 146.362 44.55L146.362 62.999 142.541 62.999 142.541 31.3774Z" fill="#FFFFFF" transform="matrix(1 0 0 1.00156 1585 129.019)"/><path d="M179.251 19.2471 183.073 19.2471 183.073 25.4343 179.251 25.4343 179.251 19.2471ZM179.251 31.3774 183.073 31.3774 183.073 62.999 179.251 62.999 179.251 31.3774Z" fill="#FFFFFF" transform="matrix(1 0 0 1.00156 1585 129.019)"/></g><g><path d="M213.183 40.6254C213.004 35.8465 209.361 33.6965 204.986 33.6965 201.587 33.6965 197.588 35.0485 197.588 39.1514 197.588 42.5877 201.475 43.8083 204.085 44.4842L209.174 45.6485C213.549 46.3245 218.093 48.897 218.093 54.4082 218.093 61.2715 211.352 63.9097 205.531 63.9097 198.245 63.9097 193.269 60.4828 192.659 52.7558L196.48 52.7558C196.78 57.9666 200.611 60.6612 205.709 60.6612 209.286 60.6612 214.262 59.0651 214.262 54.6617 214.262 50.9813 210.864 49.7608 207.409 48.897L202.489 47.7985C197.513 46.4559 193.748 44.7377 193.748 39.3392 193.748 32.9078 200.001 30.4573 205.521 30.4573 211.765 30.4573 216.75 33.7716 216.994 40.6254L213.173 40.6254Z" fill="#FFFFFF" transform="matrix(1 0 0 1.00156 1585 129.019)"/></g><g><path d="M249.724 41.3014C248.691 36.5882 245.846 33.7059 240.861 33.7059 233.509 33.7059 229.876 40.4471 229.876 47.1882 229.876 53.9294 233.519 60.6706 240.861 60.6706 245.593 60.6706 249.47 56.9338 249.959 51.6667L253.789 51.6667C252.757 59.2623 247.837 63.9191 240.861 63.9191 231.266 63.9191 226.045 56.2578 226.045 47.1882 226.045 38.1186 231.266 30.4667 240.861 30.4667 247.536 30.4667 252.691 34.0814 253.545 41.3108L249.724 41.3108Z" fill="#FFFFFF" transform="matrix(1 0 0 1.00156 1585 129.019)"/><path d="M263.065 19.2471 266.887 19.2471 266.887 36.8324 267.009 36.8324C268.398 33.0299 272.595 30.4667 277.027 30.4667 285.824 30.4667 288.5 35.1236 288.5 42.6534L288.5 62.999 284.678 62.999 284.678 43.2637C284.678 37.8088 282.923 33.7059 276.726 33.7059 270.53 33.7059 267.018 38.3627 266.896 44.55L266.896 62.999 263.075 62.999 263.075 19.2471Z" fill="#FFFFFF" transform="matrix(1 0 0 1.00156 1585 129.019)"/><path d="M301.973 48.2304C302.029 53.8637 304.949 60.6706 312.291 60.6706 317.877 60.6706 320.91 57.3563 322.121 52.5868L325.942 52.5868C324.309 59.7505 320.178 63.9191 312.282 63.9191 302.33 63.9191 298.142 56.2015 298.142 47.1882 298.142 38.851 302.33 30.4667 312.282 30.4667 322.234 30.4667 326.365 39.3486 326.064 48.2304L301.973 48.2304ZM322.243 44.9819C322.065 39.1608 318.478 33.7059 312.291 33.7059 306.104 33.7059 302.583 39.2171 301.973 44.9819L322.243 44.9819Z" fill="#FFFFFF" transform="matrix(1 0 0 1.00156 1585 129.019)"/><path d="M430.431 98.7798 352.56 98.7798 352.56 20.1578 430.431 20.1578 430.431 98.7704ZM351.64 99.6999 431.332 99.6999 431.332 19.2471 351.64 19.2471 351.64 99.6999Z" fill="#FFFFFF" transform="matrix(1 0 0 1.00156 1585 129.019)"/><path d="M433.163 99.6999 512.855 99.6999 512.855 19.2471 433.163 19.2471 433.163 99.6999ZM434.177 20.1672 436.759 20.1672C456.419 21.2375 474.802 29.4997 488.773 43.6674 503.307 58.3891 511.512 77.8897 511.944 98.639L511.944 98.7798 490.359 98.7798C489.543 67.6559 464.991 42.7473 434.167 41.8084L434.167 20.1672ZM511.944 89.0436C509.56 71.7212 501.729 55.6945 489.317 43.1135 477.027 30.6545 461.367 22.721 444.42 20.1672L511.944 20.1672 511.944 89.0436ZM434.073 42.5971C464.512 43.489 488.754 68.0596 489.58 98.7798L434.073 98.7798 434.073 42.5971Z" fill="#FFFFFF" transform="matrix(1 0 0 1.00156 1585 129.019)"/></g><g><path d="M512.855 101.54 433.163 101.54 433.163 181.984 512.855 181.984 512.855 101.54ZM511.944 102.564 511.944 105.174C510.883 125.022 502.696 143.574 488.669 157.685 474.079 172.351 454.766 180.641 434.205 181.073L434.064 181.073 434.064 159.291C464.888 158.465 489.571 133.678 490.5 102.564L511.935 102.564ZM443.716 181.073C460.869 178.66 476.755 170.764 489.214 158.23 501.551 145.818 509.409 130.016 511.944 112.91L511.944 181.073 443.716 181.073ZM489.721 102.46C488.838 133.18 464.493 157.657 434.064 158.493L434.064 102.46 489.721 102.46Z" fill="#FFFFFF" transform="matrix(1 0 0 1.00156 1585 129.019)"/></g><g><path d="M431.341 101.531 351.64 101.531 351.64 181.974 431.341 181.974 431.341 101.531ZM430.327 181.063 427.745 181.063C408.076 179.993 389.702 171.731 375.731 157.573 361.197 142.842 352.992 123.341 352.56 102.601L352.56 102.46 374.135 102.46C374.961 133.575 399.504 158.493 430.327 159.432L430.327 181.073ZM352.56 112.187C354.944 129.509 362.775 145.536 375.187 158.117 387.477 170.567 403.137 178.51 420.084 181.063L352.56 181.063 352.56 112.187ZM430.431 158.634C400.001 157.742 375.75 133.171 374.924 102.451L430.431 102.451 430.431 158.634Z" fill="#FFFFFF" transform="matrix(1 0 0 1.00156 1585 129.019)"/><path d="M351.64 99.6999 431.341 99.6999 431.341 19.2471 351.64 19.2471 351.64 99.6999ZM352.55 98.6765 352.55 96.0664C353.611 76.2185 361.798 57.6662 375.825 43.5548 390.415 28.8894 409.728 20.5991 430.28 20.1672L430.421 20.1672 430.421 41.9493C399.588 42.7755 374.915 67.5526 373.985 98.6765L352.541 98.6765ZM420.779 20.1672C403.626 22.5801 387.749 30.4761 375.29 43.0102 362.953 55.4222 355.095 71.2236 352.56 88.3301L352.56 20.1672 420.788 20.1672ZM374.774 98.7798C375.656 68.0596 399.992 43.5829 430.431 42.7473L430.431 98.7798 374.774 98.7798Z" fill="#FFFFFF" transform="matrix(1 0 0 1.00156 1585 129.019)"/></g><g><path d="M430.431 181.063 352.56 181.063 352.56 102.451 430.431 102.451 430.431 181.063ZM351.64 181.984 431.332 181.984 431.332 101.531 351.64 101.531 351.64 181.984Z" fill="#FFFFFF" transform="matrix(1 0 0 1.00156 1585 129.019)"/><path d="M511.944 181.063 434.073 181.063 434.073 102.451 511.944 102.451 511.944 181.063ZM433.153 181.984 512.846 181.984 512.846 101.531 433.153 101.531 433.153 181.984Z" fill="#FFFFFF" transform="matrix(1 0 0 1.00156 1585 129.019)"/><path d="M430.909 19.2659C420.676 19.4349 410.93 21.538 401.964 25.2184L401.964 19.679 379.496 19.679 379.496 99.1835 401.964 99.1835 401.964 50.6058C410.432 45.3574 420.319 42.2403 430.909 41.9962L430.909 19.2753Z" fill="#FFFFFF" transform="matrix(1 0 0 1.00156 1585 129.019)"/></g></g></svg>